<mxfile host="Electron" modified="2024-01-08T07:56:27.878Z" agent="Mozilla/5.0 (X11; Linux x86_64) AppleWebKit/537.36 (KHTML, like Gecko) draw.io/22.1.16 Chrome/120.0.6099.109 Electron/28.1.0 Safari/537.36" etag="olCpRHg-7-Cae3tdkgbw" version="22.1.16" type="device">
  <diagram name="Page-1" id="B4Ch-EIxhwyRGaBYFa5Q">
    <mxGraphModel dx="3069" dy="1204" grid="1" gridSize="10" guides="1" tooltips="1" connect="1" arrows="1" fold="1" page="1" pageScale="1" pageWidth="1100" pageHeight="850" math="0" shadow="0">
      <root>
        <mxCell id="0" />
        <mxCell id="1" parent="0" />
        <mxCell id="1pskvYVcQ9MpXon6gGWD-3" style="edgeStyle=orthogonalEdgeStyle;rounded=0;orthogonalLoop=1;jettySize=auto;html=1;exitX=0.5;exitY=1;exitDx=0;exitDy=0;entryX=0.5;entryY=0;entryDx=0;entryDy=0;" parent="1" source="1pskvYVcQ9MpXon6gGWD-1" target="1pskvYVcQ9MpXon6gGWD-2" edge="1">
          <mxGeometry relative="1" as="geometry" />
        </mxCell>
        <mxCell id="1pskvYVcQ9MpXon6gGWD-1" value="WS data received" style="rounded=1;whiteSpace=wrap;html=1;" parent="1" vertex="1">
          <mxGeometry x="-835" y="100" width="120" height="30" as="geometry" />
        </mxCell>
        <mxCell id="1pskvYVcQ9MpXon6gGWD-9" value="No" style="edgeStyle=orthogonalEdgeStyle;rounded=0;orthogonalLoop=1;jettySize=auto;html=1;exitX=1;exitY=0.5;exitDx=0;exitDy=0;entryX=0;entryY=0.5;entryDx=0;entryDy=0;" parent="1" source="1pskvYVcQ9MpXon6gGWD-2" target="1pskvYVcQ9MpXon6gGWD-8" edge="1">
          <mxGeometry relative="1" as="geometry" />
        </mxCell>
        <mxCell id="1pskvYVcQ9MpXon6gGWD-20" value="Yes" style="edgeStyle=orthogonalEdgeStyle;rounded=0;orthogonalLoop=1;jettySize=auto;html=1;exitX=0.5;exitY=1;exitDx=0;exitDy=0;entryX=0.5;entryY=0;entryDx=0;entryDy=0;" parent="1" source="1pskvYVcQ9MpXon6gGWD-2" target="1pskvYVcQ9MpXon6gGWD-18" edge="1">
          <mxGeometry relative="1" as="geometry" />
        </mxCell>
        <mxCell id="1pskvYVcQ9MpXon6gGWD-2" value="same number of drones as before" style="rhombus;whiteSpace=wrap;html=1;" parent="1" vertex="1">
          <mxGeometry x="-830" y="190" width="110" height="100" as="geometry" />
        </mxCell>
        <mxCell id="1pskvYVcQ9MpXon6gGWD-11" value="No" style="edgeStyle=orthogonalEdgeStyle;rounded=0;orthogonalLoop=1;jettySize=auto;html=1;exitX=1;exitY=0.5;exitDx=0;exitDy=0;entryX=0;entryY=0.5;entryDx=0;entryDy=0;" parent="1" source="1pskvYVcQ9MpXon6gGWD-8" target="1pskvYVcQ9MpXon6gGWD-10" edge="1">
          <mxGeometry relative="1" as="geometry" />
        </mxCell>
        <mxCell id="1pskvYVcQ9MpXon6gGWD-15" value="Yes" style="edgeStyle=orthogonalEdgeStyle;rounded=0;orthogonalLoop=1;jettySize=auto;html=1;exitX=0.5;exitY=1;exitDx=0;exitDy=0;entryX=0.5;entryY=0;entryDx=0;entryDy=0;" parent="1" source="1pskvYVcQ9MpXon6gGWD-8" target="1pskvYVcQ9MpXon6gGWD-13" edge="1">
          <mxGeometry relative="1" as="geometry" />
        </mxCell>
        <mxCell id="1pskvYVcQ9MpXon6gGWD-8" value="more drones&lt;br&gt;than before" style="rhombus;whiteSpace=wrap;html=1;" parent="1" vertex="1">
          <mxGeometry x="-650" y="190" width="110" height="100" as="geometry" />
        </mxCell>
        <mxCell id="1pskvYVcQ9MpXon6gGWD-17" style="edgeStyle=orthogonalEdgeStyle;rounded=0;orthogonalLoop=1;jettySize=auto;html=1;exitX=0.5;exitY=1;exitDx=0;exitDy=0;entryX=0.5;entryY=0;entryDx=0;entryDy=0;" parent="1" source="1pskvYVcQ9MpXon6gGWD-10" target="1pskvYVcQ9MpXon6gGWD-12" edge="1">
          <mxGeometry relative="1" as="geometry" />
        </mxCell>
        <mxCell id="1pskvYVcQ9MpXon6gGWD-10" value="remove disconnected drones from panel" style="rounded=1;whiteSpace=wrap;html=1;" parent="1" vertex="1">
          <mxGeometry x="-470" y="220" width="120" height="40" as="geometry" />
        </mxCell>
        <mxCell id="1pskvYVcQ9MpXon6gGWD-21" style="edgeStyle=orthogonalEdgeStyle;rounded=0;orthogonalLoop=1;jettySize=auto;html=1;exitX=0.5;exitY=1;exitDx=0;exitDy=0;entryX=0.5;entryY=0;entryDx=0;entryDy=0;" parent="1" source="1pskvYVcQ9MpXon6gGWD-12" target="1pskvYVcQ9MpXon6gGWD-19" edge="1">
          <mxGeometry relative="1" as="geometry" />
        </mxCell>
        <mxCell id="1pskvYVcQ9MpXon6gGWD-12" value="delete HTML video elements" style="rounded=1;whiteSpace=wrap;html=1;" parent="1" vertex="1">
          <mxGeometry x="-470" y="290" width="120" height="40" as="geometry" />
        </mxCell>
        <mxCell id="1pskvYVcQ9MpXon6gGWD-16" style="edgeStyle=orthogonalEdgeStyle;rounded=0;orthogonalLoop=1;jettySize=auto;html=1;exitX=0.5;exitY=1;exitDx=0;exitDy=0;entryX=0.5;entryY=0;entryDx=0;entryDy=0;" parent="1" source="1pskvYVcQ9MpXon6gGWD-13" target="1pskvYVcQ9MpXon6gGWD-14" edge="1">
          <mxGeometry relative="1" as="geometry" />
        </mxCell>
        <mxCell id="1pskvYVcQ9MpXon6gGWD-13" value="add connected drones to panel" style="rounded=1;whiteSpace=wrap;html=1;" parent="1" vertex="1">
          <mxGeometry x="-655" y="360" width="120" height="40" as="geometry" />
        </mxCell>
        <mxCell id="1pskvYVcQ9MpXon6gGWD-27" style="edgeStyle=orthogonalEdgeStyle;rounded=0;orthogonalLoop=1;jettySize=auto;html=1;exitX=0.5;exitY=1;exitDx=0;exitDy=0;entryX=0.5;entryY=0;entryDx=0;entryDy=0;" parent="1" source="1pskvYVcQ9MpXon6gGWD-14" target="1pskvYVcQ9MpXon6gGWD-26" edge="1">
          <mxGeometry relative="1" as="geometry" />
        </mxCell>
        <mxCell id="1pskvYVcQ9MpXon6gGWD-14" value="create HTML video elements" style="rounded=1;whiteSpace=wrap;html=1;" parent="1" vertex="1">
          <mxGeometry x="-655" y="430" width="120" height="40" as="geometry" />
        </mxCell>
        <mxCell id="1pskvYVcQ9MpXon6gGWD-25" value="No" style="edgeStyle=orthogonalEdgeStyle;rounded=0;orthogonalLoop=1;jettySize=auto;html=1;exitX=0;exitY=0.5;exitDx=0;exitDy=0;entryX=1;entryY=0.5;entryDx=0;entryDy=0;" parent="1" source="1pskvYVcQ9MpXon6gGWD-18" target="1pskvYVcQ9MpXon6gGWD-24" edge="1">
          <mxGeometry relative="1" as="geometry" />
        </mxCell>
        <mxCell id="1pskvYVcQ9MpXon6gGWD-29" value="Yes" style="edgeStyle=orthogonalEdgeStyle;rounded=0;orthogonalLoop=1;jettySize=auto;html=1;exitX=0.5;exitY=1;exitDx=0;exitDy=0;entryX=0;entryY=0.5;entryDx=0;entryDy=0;" parent="1" source="1pskvYVcQ9MpXon6gGWD-18" target="1pskvYVcQ9MpXon6gGWD-26" edge="1">
          <mxGeometry relative="1" as="geometry" />
        </mxCell>
        <mxCell id="1pskvYVcQ9MpXon6gGWD-18" value="drones &amp;gt; 0" style="rhombus;whiteSpace=wrap;html=1;" parent="1" vertex="1">
          <mxGeometry x="-830" y="360" width="110" height="60" as="geometry" />
        </mxCell>
        <mxCell id="1pskvYVcQ9MpXon6gGWD-23" value="No" style="edgeStyle=orthogonalEdgeStyle;rounded=0;orthogonalLoop=1;jettySize=auto;html=1;exitX=1;exitY=0.5;exitDx=0;exitDy=0;entryX=0;entryY=0.5;entryDx=0;entryDy=0;" parent="1" source="1pskvYVcQ9MpXon6gGWD-19" target="1pskvYVcQ9MpXon6gGWD-22" edge="1">
          <mxGeometry relative="1" as="geometry" />
        </mxCell>
        <mxCell id="1pskvYVcQ9MpXon6gGWD-28" value="Yes" style="edgeStyle=orthogonalEdgeStyle;rounded=0;orthogonalLoop=1;jettySize=auto;html=1;exitX=0.5;exitY=1;exitDx=0;exitDy=0;entryX=1;entryY=0.5;entryDx=0;entryDy=0;" parent="1" source="1pskvYVcQ9MpXon6gGWD-19" target="1pskvYVcQ9MpXon6gGWD-26" edge="1">
          <mxGeometry relative="1" as="geometry" />
        </mxCell>
        <mxCell id="1pskvYVcQ9MpXon6gGWD-19" value="drones &amp;gt; 0" style="rhombus;whiteSpace=wrap;html=1;" parent="1" vertex="1">
          <mxGeometry x="-465" y="360" width="110" height="60" as="geometry" />
        </mxCell>
        <mxCell id="1pskvYVcQ9MpXon6gGWD-22" value="" style="shape=sumEllipse;perimeter=ellipsePerimeter;html=1;backgroundOutline=1;" parent="1" vertex="1">
          <mxGeometry x="-300" y="375" width="30" height="30" as="geometry" />
        </mxCell>
        <mxCell id="1pskvYVcQ9MpXon6gGWD-24" value="" style="shape=sumEllipse;perimeter=ellipsePerimeter;html=1;backgroundOutline=1;" parent="1" vertex="1">
          <mxGeometry x="-920" y="375" width="30" height="30" as="geometry" />
        </mxCell>
        <mxCell id="1pskvYVcQ9MpXon6gGWD-31" style="edgeStyle=orthogonalEdgeStyle;rounded=0;orthogonalLoop=1;jettySize=auto;html=1;exitX=0.5;exitY=1;exitDx=0;exitDy=0;entryX=0.5;entryY=0;entryDx=0;entryDy=0;" parent="1" source="1pskvYVcQ9MpXon6gGWD-26" target="1pskvYVcQ9MpXon6gGWD-30" edge="1">
          <mxGeometry relative="1" as="geometry" />
        </mxCell>
        <mxCell id="1pskvYVcQ9MpXon6gGWD-26" value="update drone data" style="rounded=1;whiteSpace=wrap;html=1;" parent="1" vertex="1">
          <mxGeometry x="-655" y="570" width="120" height="40" as="geometry" />
        </mxCell>
        <mxCell id="1pskvYVcQ9MpXon6gGWD-33" style="edgeStyle=orthogonalEdgeStyle;rounded=0;orthogonalLoop=1;jettySize=auto;html=1;exitX=0.5;exitY=1;exitDx=0;exitDy=0;entryX=0.5;entryY=0;entryDx=0;entryDy=0;" parent="1" source="1pskvYVcQ9MpXon6gGWD-30" target="1pskvYVcQ9MpXon6gGWD-32" edge="1">
          <mxGeometry relative="1" as="geometry" />
        </mxCell>
        <mxCell id="1pskvYVcQ9MpXon6gGWD-30" value="update UI (if needed)" style="rounded=1;whiteSpace=wrap;html=1;" parent="1" vertex="1">
          <mxGeometry x="-655" y="640" width="120" height="40" as="geometry" />
        </mxCell>
        <mxCell id="1pskvYVcQ9MpXon6gGWD-35" style="edgeStyle=orthogonalEdgeStyle;rounded=0;orthogonalLoop=1;jettySize=auto;html=1;exitX=0.5;exitY=1;exitDx=0;exitDy=0;entryX=0.5;entryY=0;entryDx=0;entryDy=0;" parent="1" source="1pskvYVcQ9MpXon6gGWD-32" target="1pskvYVcQ9MpXon6gGWD-34" edge="1">
          <mxGeometry relative="1" as="geometry" />
        </mxCell>
        <mxCell id="1pskvYVcQ9MpXon6gGWD-32" value="update drone position on map" style="rounded=1;whiteSpace=wrap;html=1;" parent="1" vertex="1">
          <mxGeometry x="-655" y="710" width="120" height="40" as="geometry" />
        </mxCell>
        <mxCell id="1pskvYVcQ9MpXon6gGWD-34" value="update drone stream and detection frames" style="rounded=1;whiteSpace=wrap;html=1;" parent="1" vertex="1">
          <mxGeometry x="-655" y="780" width="120" height="40" as="geometry" />
        </mxCell>
      </root>
    </mxGraphModel>
  </diagram>
</mxfile>
